#!OML:ASF H:\BabyWalks\Project 1\Capture day 1\Session 1\baby.ASF
:FULLY-SPECIFIED
:DEGREES
364
root -0.543276 17.7051 -2.07397 -72.6892 78.38 -84.5071
lowerback 30.7349 -0.374697 -3.2987
upperback 9.0941 -0.711585 -1.19145
thorax -6.52502 0.00162972 0.784867
lowerneck 1.04846 1.70871 4.32906
upperneck -18.6728 3.61326 2.74875
head -5.80824 1.51865 -0.0701147
rclavicle 1.59028e-015 3.18055e-014
rhumerus -58.339 11.6271 -90.0778
rradius 55.7912
rwrist -4.47838
rhand -2.28013 -15.4754
rfingers 7.12502
rthumb 23.4047 -44.0722
lclavicle 1.59028e-015 3.18055e-014
lhumerus -49.6372 0.606822 75.2778
lradius 68.5867
lwrist 5.60774
lhand -21.7408 8.62599
lfingers 7.12502
lthumb 4.65908 38.5548
rfemur -32.3915 8.41178 24.0627
rtibia 24.4076
rfoot -12.109 12.9809
rtoes -11.6665
lfemur -38.4878 -1.18633 -2.39377
ltibia 37.5244
lfoot -13.3949 -15.6397
ltoes -1.70145
365
root -0.475042 17.7031 -2.04732 -74.8808 78.555 -87.058
lowerback 30.7209 -0.305904 -3.1628
upperback 9.24226 -0.546656 -1.0483
thorax -6.35691 0.0829379 0.808649
lowerneck 1.2461 1.49818 4.42396
upperneck -19.0289 3.33078 2.54321
head -5.95144 1.37963 -0.141307
rclavicle -1.59028e-015 3.33958e-014
rhumerus -58.4546 11.6735 -90.2218
rradius 55.6126
rwrist -4.11701
rhand -2.26774 -15.4178
rfingers 7.12502
rthumb 23.4166 -44.013
lclavicle -1.59028e-015 3.33958e-014
lhumerus -50.1427 0.427709 76.1824
lradius 67.1686
lwrist 5.0783
lhand -20.9954 8.97873
lfingers 7.12502
lthumb 5.37881 38.8905
rfemur -32.6741 8.90135 23.6717
rtibia 23.117
rfoot -11.2535 12.0332
rtoes -11.0683
lfemur -38.9239 -1.36469 -2.46168
ltibia 37.7741
lfoot -13.5702 -15.8718
ltoes -1.62946
366
root -0.407125 17.6975 -2.01892 -77.1314 78.7924 -89.6597
lowerback 30.6715 -0.212917 -3.06183
upperback 9.37546 -0.364596 -0.92947
thorax -6.18981 0.17262 0.819804
lowerneck 1.4421 1.26105 4.5141
upperneck -19.326 3.01276 2.38152
head -6.07818 1.22173 -0.194761
rclavicle -6.36111e-015 1.11319e-014
rhumerus -58.5644 11.7138 -90.3989
rradius 55.4175
rwrist -3.75419
rhand -2.20551 -15.3425
rfingers 7.12502
rthumb 23.4763 -43.9302
lclavicle -6.36111e-015 1.11319e-014
lhumerus -50.6525 0.169562 77.0644
lradius 65.6507
lwrist 4.49341
lhand -20.1229 9.23294
lfingers 7.12502
lthumb 6.22116 39.1216
rfemur -32.9851 9.29912 23.2421
rtibia 22.1867
rfoot -10.3491 11.1488
rtoes -10.4349
lfemur -39.3716 -1.52605 -2.62268
ltibia 38.0458
lfoot -13.746 -16.1586
ltoes -1.51701
367
root -0.339685 17.6884 -1.98916 -79.5456 79.0962 -92.4162
lowerback 30.5901 -0.101082 -2.99674
upperback 9.4953 -0.171787 -0.830226
thorax -6.02313 0.267557 0.826603
lowerneck 1.62348 0.998481 4.59055
upperneck -19.5584 2.65861 2.25964
head -6.1842 1.04554 -0.229828
rclavicle 1.59028e-014 1.74931e-014
rhumerus -58.6591 11.756 -90.5949
rradius 55.2042
rwrist -3.38443
rhand -2.09739 -15.2451
rfingers 7.12502
rthumb 23.58 -43.8194
lclavicle 1.59028e-014 1.74931e-014
lhumerus -51.1585 -0.140677 77.9147
lradius 64.0466
lwrist 3.86535
lhand -19.121 9.35149
lfingers 7.12502
lthumb 7.18835 39.2094
rfemur -33.3172 9.56102 22.7939
rtibia 21.6066
rfoot -9.41978 10.3764
rtoes -9.656
lfemur -39.8301 -1.68397 -2.88089
ltibia 38.3333
lfoot -13.9152 -16.5021
ltoes -1.34563
368
root -0.272656 17.6758 -1.95837 -82.2368 79.4572 -95.427
lowerback 30.4993 0.0245322 -2.95774
upperback 9.60234 0.0283308 -0.74809
thorax -5.86691 0.366396 0.827479
lowerneck 1.78685 0.712311 4.65215
upperneck -19.7292 2.27008 2.17173
head -6.26945 0.852248 -0.24816
rclavicle -1.59028e-015 1.11319e-014
rhumerus -58.7365 11.799 -90.8021
rradius 54.974
rwrist -3.01543
rhand -1.96055 -15.1189
rfingers 7.12502
rthumb 23.7112 -43.6763
lclavicle -1.59028e-015 1.11319e-014
lhumerus -51.6627 -0.478914 78.7133
lradius 62.378
lwrist 3.20274
lhand -17.9949 9.30017
lfingers 7.12502
lthumb 8.27524 39.1181
rfemur -33.6446 9.67466 22.3478
rtibia 21.3553
rfoot -8.50425 9.76262
rtoes -8.46581
lfemur -40.2803 -1.84663 -3.23164
ltibia 38.6292
lfoot -14.0716 -16.9043
ltoes -1.10857
369
root -0.206463 17.6604 -1.92658 -85.3547 79.8682 -98.843
lowerback 30.4025 0.157207 -2.94566
upperback 9.69813 0.227879 -0.677623
thorax -5.72064 0.465283 0.831709
lowerneck 1.92726 0.405075 4.70056
upperneck -19.8466 1.84878 2.10392
head -6.33513 0.643379 -0.254567
rclavicle 2.06736e-014 2.38542e-014
rhumerus -58.7935 11.8482 -91.0077
rradius 54.7359
rwrist -2.63945
rhand -1.76863 -14.9786
rfingers 7.12502
rthumb 23.8953 -43.512
lclavicle 2.06736e-014 2.38542e-014
lhumerus -52.1682 -0.811141 79.4415
lradius 60.6765
lwrist 2.52431
lhand -16.7559 9.08511
lfingers 7.12502
lthumb 9.47084 38.8523
rfemur -33.971 9.67928 21.8799
rtibia 21.4086
rfoot -7.60835 9.28742
rtoes -6.68383
lfemur -40.7204 -2.03279 -3.67091
ltibia 38.9207
lfoot -14.202 -17.3567
ltoes -0.801204
370
root -0.141568 17.643 -1.89393 -89.034 80.3045 -102.787
lowerback 30.318 0.29354 -2.95184
upperback 9.78805 0.426292 -0.611359
thorax -5.58685 0.564174 0.842648
lowerneck 2.05416 0.0777626 4.72889
upperneck -19.9358 1.39728 2.05249
head -6.39063 0.420539 -0.249516
rclavicle 1.11319e-014 -6.36111e-015
rhumerus -58.8193 11.9075 -91.1988
rradius 54.4884
rwrist -2.26258
rhand -1.5333 -14.8178
rfingers 7.12502
rthumb 24.1209 -43.3215
lclavicle 1.11319e-014 -6.36111e-015
lhumerus -52.6736 -1.10812 80.0845
lradius 58.9771
lwrist 1.84315
lhand -15.4302 8.72652
lfingers 7.12502
lthumb 10.7498 38.4315
rfemur -34.2943 9.62962 21.3725
rtibia 21.7442
rfoot -6.86167 8.8448
rtoes -4.77226
lfemur -41.1326 -2.24471 -4.18646
ltibia 39.1945
lfoot -14.2933 -17.8565
ltoes -0.438094
